<svg xmlns="http://www.w3.org/2000/svg" xmlns:xlink="http://www.w3.org/1999/xlink" width="26" height="26" viewBox="0 0 26 26">
  <path id="info" class="cls-1" d="M1377.92,1418.53a1.5,1.5,0,1,0,1.49-1.48A1.451,1.451,0,0,0,1377.92,1418.53Zm-3.33,5.17a6.434,6.434,0,0,0,.01.87l1.3-1.57a1,1,0,0,1,.74-0.44,0.339,0.339,0,0,1,.2.42l-2.16,7.15a1.445,1.445,0,0,0,1.37,1.85c1.68,0,2.67-1.14,3.65-2.61a8.348,8.348,0,0,0,.03-0.91l-1.31,1.58a1.034,1.034,0,0,1-.76.44,0.332,0.332,0,0,1-.21-0.38l2.18-7.19a1.473,1.473,0,0,0-1.35-1.85C1377.18,1421.06,1375.57,1422.23,1374.59,1423.7Zm3.08-12.12a13,13,0,1,1-13,13A13,13,0,0,1,1377.67,1411.58Z" transform="translate(-1364.66 -1411.59)"/>
</svg>
