<svg xmlns="http://www.w3.org/2000/svg" xmlns:xlink="http://www.w3.org/1999/xlink" width="19.18" height="24.31" viewBox="0 0 19.18 24.31">
  <path id="link" class="cls-1" d="M1319.36,1418.81l-3.5,6.06a2,2,0,0,1-2.73.73l-0.87-.5,1-1.73h0a1,1,0,0,0,1.37-.37l2.5-4.33a0.99,0.99,0,0,0-.37-1.36l-3.46-2a1.007,1.007,0,0,0-1.37.36l-2.5,4.33a1.01,1.01,0,0,0,.37,1.37l-1,1.73-0.87-.5a2,2,0,0,1-.73-2.73l3.5-6.06a1.988,1.988,0,0,1,2.73-.73l5.2,3A2,2,0,0,1,1319.36,1418.81Zm-11.83,10.49a1,1,0,0,1-.36-1.37l4-6.93a1,1,0,0,1,1.73,1l-4,6.93A1.01,1.01,0,0,1,1307.53,1429.3Zm-0.73-2.73h0a1,1,0,0,0-1.37.36l-2.5,4.33a1.01,1.01,0,0,0,.37,1.37l3.46,2a1,1,0,0,0,1.37-.37l2.5-4.33a0.988,0.988,0,0,0-.37-1.36h0l1-1.74,0.87,0.5a2.009,2.009,0,0,1,.73,2.74l-3.5,6.06a2,2,0,0,1-2.73.73l-5.2-3a2,2,0,0,1-.73-2.73l3.5-6.06a2,2,0,0,1,2.73-.74l0.87,0.5Z" transform="translate(-1300.44 -1412.81)"/>
</svg>
