<svg xmlns="http://www.w3.org/2000/svg" xmlns:xlink="http://www.w3.org/1999/xlink" width="29.19" height="29.88" viewBox="0 0 29.19 29.88">
  <path id="zoom" class="cls-1" d="M1388.59,1378.57l-0.71.71a1.986,1.986,0,0,1-2.83,0l-5.68-5.67a1.97,1.97,0,0,1-.28-2.41l-3.1-3.11a10.078,10.078,0,1,1,1.48-1.35l3.04,3.04a1.97,1.97,0,0,1,2.41.28l5.67,5.68A1.986,1.986,0,0,1,1388.59,1378.57ZM1377.52,1360a7.511,7.511,0,0,0-7.52-7.52,7.4,7.4,0,0,0-3.22.75c0.52,0.53,1.31,1.34,1.35,1.34-0.81,0-3.48,2.67-3.48,3.54,0-.04-0.85-0.84-1.4-1.37A7.51,7.51,0,1,0,1377.52,1360Z" transform="translate(-1360 -1350)"/>
</svg>
