<svg xmlns="http://www.w3.org/2000/svg" width="28.06" height="12.21" viewBox="0 0 28.06 12.21">
  <defs>
    <style>
      .cls-1 {
        fill: #1f373d;
        fill-rule: evenodd;
      }
    </style>
  </defs>
  <path class="cls-1" d="M1481.82,6796.43l-0.71.71a0.15,0.15,0,0,0,0,.18l4.57,4.56h-25.57a0.124,0.124,0,0,0-.13.12v1a0.124,0.124,0,0,0,.13.12h25.58l-4.57,4.57a0.135,0.135,0,0,0,0,.17l0.71,0.71a0.127,0.127,0,0,0,.18,0l5.97-5.98a0.115,0.115,0,0,0,0-.17l-0.7-.71h0l-5.28-5.28A0.127,0.127,0,0,0,1481.82,6796.43Z" transform="translate(-1459.97 -6796.41)"/>
</svg>
