<svg xmlns="http://www.w3.org/2000/svg" width="179.594" height="84.97" viewBox="0 0 179.594 84.97">
  <defs>
    <style>
      .cls-1 {
        fill: #fff;
        fill-rule: evenodd;
      }
    </style>
  </defs>
  <path id="Composite_Path" data-name="Composite Path" class="cls-1" d="M909.134,3182.25l28.336-28.51a129,129,0,0,0,17.424-21.65,43.954,43.954,0,0,0,4.807-10.53H931.163a28.8,28.8,0,0,1-2.758,5.69,66.171,66.171,0,0,1-9.767,12.06l-45.584,46.99v19.18H965.63v-23.23h-56.5Zm-77.348-60.69q2.372,8.895,2.374,22.32,0,21.48-6.16,31.42t-19.008,9.94q-13.2,0-19.36-9.94a33.384,33.384,0,0,1-3.591-8.52v35.72a60.87,60.87,0,0,0,22.951,4.04q25.871,0,39.776-16.28t13.9-46.38a99.3,99.3,0,0,0-2.323-22.32H831.786Z" transform="translate(-786.031 -3121.56)"/>
</svg>
