<svg xmlns="http://www.w3.org/2000/svg" width="178.72" height="85.16" viewBox="0 0 178.72 85.16">
  <defs>
    <style>
      .cls-1 {
        fill: #1f373d;
        fill-rule: evenodd;
      }
    </style>
  </defs>
  <path id="Composite_Path" data-name="Composite Path" class="cls-1" d="M1337.16,3144.06q-9.6-8.79-25.79-10.91l-6.33-.88,11.38-10.71h-28.03l-13.27,12.82v15.84h19.89q11.79,0,18.12,4.31t6.34,12.59a15.134,15.134,0,0,1-6.34,12.93q-6.33,4.665-17.95,4.67a50.159,50.159,0,0,1-17.95-3.35,56.533,56.533,0,0,1-16.37-9.68l-10.74,20.59a71.539,71.539,0,0,0,21.57,10.48,85.917,85.917,0,0,0,25.6,3.96q14.955,0,26.14-5.02a39.654,39.654,0,0,0,17.25-14.08,36.259,36.259,0,0,0,6.07-20.68Q1346.75,3152.87,1337.16,3144.06Zm-123.37-22.5q2.37,8.895,2.37,22.32,0,21.48-6.16,31.42t-19.01,9.94q-13.2,0-19.36-9.94a33.349,33.349,0,0,1-3.59-8.52v35.72a60.839,60.839,0,0,0,22.95,4.04q25.875,0,39.78-16.28t13.9-46.38a99.312,99.312,0,0,0-2.32-22.32h-28.56Z" transform="translate(-1168.03 -3121.56)"/>
</svg>
